name C:/MyDriveSym/Projects/mobilecap/Data\Session20210823_0002\mocap\ForceDataProcessed\walking1_forces.mot
datacolumns 19
datarows 12
range 0.35700000 0.36250000
endheader 
time	R_ground_force_vx	R_ground_force_vy	R_ground_force_vz	R_ground_force_px	R_ground_force_py	R_ground_force_pz	R_ground_torque_x	R_ground_torque_y	R_ground_torque_z	L_ground_force_vx	L_ground_force_vy	L_ground_force_vz	L_ground_force_px	L_ground_force_py	L_ground_force_pz	L_ground_torque_x	L_ground_torque_y	L_ground_torque_z	
          0.35700000	          2.42079000	        487.64898400	        -16.78949200	          0.29867800	          0.00600000	         -0.14536100	          0.00000000	         -2.27880000	          0.00000000	          0.00000000	          0.00000000	          0.00000000	          0.74202100	          0.00000000	         -0.25075500	          0.00000000	          0.00000000	          0.00000000	
          0.35750000	          2.55339800	        487.67054600	        -16.79319100	          0.29889100	          0.00600000	         -0.14534800	          0.00000000	         -2.28895100	          0.00000000	          0.00000000	          0.00000000	          0.00000000	          0.74202100	          0.00000000	         -0.25075500	          0.00000000	          0.00000000	          0.00000000	
          0.35800000	          2.68563300	        487.69842700	        -16.79742700	          0.29910300	          0.00600000	         -0.14533600	          0.00000000	         -2.29909100	          0.00000000	          0.00000000	          0.00000000	          0.00000000	          0.74202100	          0.00000000	         -0.25075500	          0.00000000	          0.00000000	          0.00000000	
          0.35850000	          2.81750000	        487.73261900	        -16.80220500	          0.29931600	          0.00600000	         -0.14532400	          0.00000000	         -2.30922100	          0.00000000	          0.00000000	          0.00000000	          0.00000000	          0.74202100	          0.00000000	         -0.25075500	          0.00000000	          0.00000000	          0.00000000	
          0.35900000	          2.94900800	        487.77311500	        -16.80752500	          0.29952900	          0.00600000	         -0.14531200	          0.00000000	         -2.31934000	          0.00000000	          0.00000000	          0.00000000	          0.00000000	          0.74202100	          0.00000000	         -0.25075500	          0.00000000	          0.00000000	          0.00000000	
          0.35950000	          3.08016400	        487.81990600	        -16.81339100	          0.29974100	          0.00600000	         -0.14530000	          0.00000000	         -2.32944700	          0.00000000	          0.00000000	          0.00000000	          0.00000000	          0.74202100	          0.00000000	         -0.25075500	          0.00000000	          0.00000000	          0.00000000	
          0.36000000	          3.21097300	        487.87298400	        -16.81980400	          0.29995400	          0.00600000	         -0.14528800	          0.00000000	         -2.33954200	          0.00000000	          0.00000000	          0.00000000	          0.00000000	          0.74202100	          0.00000000	         -0.25075500	          0.00000000	          0.00000000	          0.00000000	
          0.36050000	          3.34144300	        487.93234000	        -16.82676600	          0.30016600	          0.00600000	         -0.14527500	          0.00000000	         -2.34962500	          0.00000000	          0.00000000	          0.00000000	          0.00000000	          0.74202100	          0.00000000	         -0.25075500	          0.00000000	          0.00000000	          0.00000000	
          0.36100000	          3.47158200	        487.99796400	        -16.83428000	          0.30037900	          0.00600000	         -0.14526300	          0.00000000	         -2.35969600	          0.00000000	          0.00000000	          0.00000000	          0.00000000	          0.74202100	          0.00000000	         -0.25075500	          0.00000000	          0.00000000	          0.00000000	
          0.36150000	          3.60139600	        488.06984700	        -16.84234800	          0.30059200	          0.00600000	         -0.14525100	          0.00000000	         -2.36975300	          0.00000000	          0.00000000	          0.00000000	          0.00000000	          0.74202100	          0.00000000	         -0.25075500	          0.00000000	          0.00000000	          0.00000000	
          0.36200000	          3.73089200	        488.14797800	        -16.85097100	          0.30080400	          0.00600000	         -0.14523800	          0.00000000	         -2.37979700	          0.00000000	          0.00000000	          0.00000000	          0.00000000	          0.74202100	          0.00000000	         -0.25075500	          0.00000000	          0.00000000	          0.00000000	
          0.36250000	          3.86007700	        488.23234800	        -16.86015300	          0.30101700	          0.00600000	         -0.14522600	          0.00000000	         -2.38982800	          0.00000000	          0.00000000	          0.00000000	          0.00000000	          0.74202100	          0.00000000	         -0.25075500	          0.00000000	          0.00000000	          0.00000000	
